HIERARCHY
ROOT Hips
{
	OFFSET 0.000000 0.000000 0.000000
	CHANNELS 6 Xposition Yposition Zposition Xrotation Yrotation Zrotation
	JOINT LeftUpLeg_virtual
	{
		OFFSET 0.000000 0.000000 0.000000
		CHANNELS 3 Xrotation Yrotation Zrotation
		JOINT LeftUpLeg
		{
			OFFSET 10.205400 -3.823500 0.155100
			CHANNELS 3 Xrotation Yrotation Zrotation
			JOINT LeftLeg
			{
				OFFSET 0.708757 -12.982077 0.567790
				CHANNELS 3 Xrotation Yrotation Zrotation
				JOINT LeftFoot
				{
					OFFSET -0.708756 -10.717838 -2.184338
					CHANNELS 3 Xrotation Yrotation Zrotation
					JOINT LeftToeBase
					{
						OFFSET 0.108149 -7.191104 7.560241
						CHANNELS 3 Xrotation Yrotation Zrotation
						JOINT LeftToe_End
						{
							OFFSET 0.070230 0.081724 4.490308
							CHANNELS 3 Xrotation Yrotation Zrotation
							End Site
							{
								OFFSET 0 0 0
							}
						}
					}
				}
			}
		}
	}
	JOINT RightUpLeg_virtual
	{
		OFFSET 0.000000 0.000000 0.000000
		CHANNELS 3 Xrotation Yrotation Zrotation
		JOINT RightUpLeg
		{
			OFFSET -10.205400 -3.823500 0.005500
			CHANNELS 3 Xrotation Yrotation Zrotation
			JOINT RightLeg
			{
				OFFSET -0.708756 -12.982134 0.610632
				CHANNELS 3 Xrotation Yrotation Zrotation
				JOINT RightFoot
				{
					OFFSET 0.708754 -10.717769 -1.945823
					CHANNELS 3 Xrotation Yrotation Zrotation
					JOINT RightToeBase
					{
						OFFSET -0.108140 -7.191069 7.372968
						CHANNELS 3 Xrotation Yrotation Zrotation
						JOINT RightToe_End
						{
							OFFSET -0.070227 0.081735 4.479403
							CHANNELS 3 Xrotation Yrotation Zrotation
							End Site
							{
								OFFSET 0 0 0
							}
						}
					}
				}
			}
		}
	}
	JOINT Spine_virtual
	{
		OFFSET 0.000000 0.000000 0.000000
		CHANNELS 3 Xrotation Yrotation Zrotation
		JOINT Spine
		{
			OFFSET 0.000000 6.876099 0.125700
			CHANNELS 3 Xrotation Yrotation Zrotation
			JOINT Spine1
			{
				OFFSET 0.000000 5.730043 0.104720
				CHANNELS 3 Xrotation Yrotation Zrotation
				JOINT Spine1_split
				{
					OFFSET 0.000000 5.730043 0.104720
					CHANNELS 3 Xrotation Yrotation Zrotation
					JOINT Spine2
					{
						OFFSET 0.000000 5.730043 0.104720
						CHANNELS 3 Xrotation Yrotation Zrotation
						JOINT Neck_virtual
						{
							OFFSET 0.000000 0.000000 0.000000
							CHANNELS 3 Xrotation Yrotation Zrotation
							JOINT Neck
							{
								OFFSET 0.000000 10.314075 0.188496
								CHANNELS 3 Xrotation Yrotation Zrotation
								JOINT Head
								{
									OFFSET 0.000000 7.643700 -2.377400
									CHANNELS 3 Xrotation Yrotation Zrotation
									JOINT HeadTop_End
									{
										OFFSET 0.000000 43.788605 -13.619600
										CHANNELS 3 Xrotation Yrotation Zrotation
										End Site
										{
											OFFSET 0 0 0
										}
									}
								}
							}
						}
						JOINT LeftShoulder_virtual
						{
							OFFSET 0.000000 0.000000 0.000000
							CHANNELS 3 Xrotation Yrotation Zrotation
							JOINT LeftShoulder
							{
								OFFSET 2.196100 4.412489 0.087492
								CHANNELS 3 Xrotation Yrotation Zrotation
								JOINT LeftShoulder_split
								{
									OFFSET 2.196100 4.412489 0.087492
									CHANNELS 3 Xrotation Yrotation Zrotation
									JOINT LeftArm
									{
										OFFSET 8.771219 -2.981674 -0.026999
										CHANNELS 3 Xrotation Yrotation Zrotation
										JOINT LeftForeArm
										{
											OFFSET 8.512804 0.000000 -0.000000
											CHANNELS 3 Xrotation Yrotation Zrotation
											JOINT LeftHand
											{
												OFFSET 18.484802 0.000000 -0.000000
												CHANNELS 3 Xrotation Yrotation Zrotation
												End Site
												{
													OFFSET 0 0 0
												}
											}
										}
									}
								}
							}
						}
						JOINT RightShoulder_virtual
						{
							OFFSET 0.000000 0.000000 0.000000
							CHANNELS 3 Xrotation Yrotation Zrotation
							JOINT RightShoulder
							{
								OFFSET -2.196100 4.412496 0.070690
								CHANNELS 3 Xrotation Yrotation Zrotation
								JOINT RightShoulder_split
								{
									OFFSET -2.196100 4.412496 0.070690
									CHANNELS 3 Xrotation Yrotation Zrotation
									JOINT RightArm
									{
										OFFSET -8.771282 -2.981682 -0.094208
										CHANNELS 3 Xrotation Yrotation Zrotation
										JOINT RightForeArm
										{
											OFFSET -8.494598 0.000000 0.000000
											CHANNELS 3 Xrotation Yrotation Zrotation
											JOINT RightHand
											{
												OFFSET -18.483803 0.000000 0.000001
												CHANNELS 3 Xrotation Yrotation Zrotation
												End Site
												{
													OFFSET 0 0 0
												}
											}
										}
									}
								}
							}
						}
					}
				}
			}
		}
	}
}
MOTION
Frames: 4
Frame Time: 0.03333333
-0.052989 31.920725 -2.134855 0.000000 0.000000 0.000000 -24.525169 -2.839969 -1.115904 14.688935 21.590334 0.254725 37.126832 4.795253 -10.384683 -33.580792 28.589533 12.062994 0.241636 0.026433 -0.826488 0.000000 0.000000 0.000000 -24.525169 -2.839969 -1.115904 37.333309 -15.037467 4.901531 22.220491 -9.487298 -0.472974 -32.163111 -29.672804 0.264018 0.596272 -0.007306 0.727800 0.000000 0.000000 0.000000 -24.525169 -2.839969 -1.115904 11.143402 -4.480154 -1.309381 3.545657 -2.400648 -0.151373 0.000000 0.000000 0.000000 0.000000 0.000000 0.000000 3.557024 -2.388376 -0.108335 1.551789 0.634301 -1.308391 -6.938526 0.762142 3.865454 0.000000 0.000000 0.000000 3.557024 -2.388376 -0.108335 0.445066 -15.488190 -11.025431 0.000000 0.000000 0.000000 -20.285394 3.054794 -36.773551 -0.000017 -67.201944 -0.000006 0.000000 0.000000 0.000000 3.557024 -2.388376 -0.108335 0.064844 14.691503 14.953755 0.000000 0.000000 0.000000 -12.070000 -6.923742 61.446649 0.000016 39.415447 -0.000010 0.000000 0.000000 0.000000 
-0.225336 31.949095 -1.949938 0.000000 0.000000 0.000000 -24.583912 -4.772726 -2.006271 12.588057 22.758190 2.396707 41.869097 4.811281 -10.260784 -32.781852 29.103095 10.601533 -0.585893 0.135022 -2.523827 0.000000 0.000000 0.000000 -24.583912 -4.772726 -2.006271 36.934873 -14.243262 4.655372 22.425531 -9.260109 -0.295111 -32.323136 -28.471268 -0.153827 0.609235 -0.007598 0.743466 0.000000 0.000000 0.000000 -24.583912 -4.772726 -2.006271 11.143549 -4.491026 -1.306862 3.545657 -2.400648 -0.151373 0.000000 0.000000 0.000000 0.000000 0.000000 0.000000 3.557024 -2.388378 -0.108335 1.594338 0.627994 -1.252938 -6.802726 0.692376 4.007736 0.000000 0.000000 0.000000 3.557024 -2.388378 -0.108335 0.460824 -15.508026 -10.923483 0.000000 0.000000 0.000000 -20.284320 3.109533 -36.878934 0.000040 -67.192901 0.000037 0.000000 0.000000 0.000000 3.557024 -2.388378 -0.108335 0.056302 14.633626 15.032346 0.000000 0.000000 0.000000 -11.965740 -6.692801 61.317156 -0.000003 39.454062 0.000007 0.000000 0.000000 0.000000 
-0.401735 31.988796 -1.747667 0.000000 0.000000 0.000000 -24.674808 -6.738429 -2.900843 9.612916 23.703207 4.981487 47.275356 4.768783 -9.969932 -31.377817 29.435100 10.057777 -0.842844 0.398440 -5.244513 0.000000 0.000000 0.000000 -24.674808 -6.738429 -2.900843 36.655638 -13.482777 4.419234 22.429667 -9.211497 -0.212924 -32.283285 -27.092166 -0.354460 0.579839 -0.006899 0.707936 0.000000 0.000000 0.000000 -24.674808 -6.738429 -2.900843 11.142690 -4.495352 -1.318327 3.545657 -2.400648 -0.151373 0.000000 0.000000 0.000000 0.000000 0.000000 0.000000 3.557026 -2.388376 -0.108335 1.648781 0.606480 -1.184733 -6.610730 0.500816 4.168910 0.000000 0.000000 0.000000 3.557026 -2.388376 -0.108335 0.472354 -15.517857 -10.848862 0.000000 0.000000 0.000000 -20.272655 3.135287 -36.949213 0.000011 -67.183476 0.000018 0.000000 0.000000 0.000000 3.557026 -2.388376 -0.108335 0.054228 14.638969 15.044525 0.000000 0.000000 0.000000 -11.849485 -6.498824 61.233998 -0.000002 39.468876 -0.000007 0.000000 0.000000 0.000000 
-0.531758 32.041245 -1.551554 0.000000 0.000000 0.000000 -24.799637 -8.731488 -3.801755 5.940939 23.783692 8.048365 51.954438 4.309586 -9.355760 -28.512227 27.932048 9.065551 -2.193355 0.646272 -6.652522 0.000000 0.000000 0.000000 -24.799637 -8.731488 -3.801755 36.282962 -12.843050 4.013949 22.493498 -9.154415 -0.171890 -32.092491 -25.624839 -0.344802 0.546636 -0.006131 0.667837 0.000000 0.000000 0.000000 -24.799637 -8.731488 -3.801755 11.140883 -4.497058 -1.342885 3.545659 -2.400648 -0.151373 0.000000 0.000000 0.000000 0.000000 0.000000 0.000000 3.557025 -2.388377 -0.108335 1.686213 0.561396 -1.092498 -6.453757 0.145321 4.405431 0.000000 0.000000 0.000000 3.557025 -2.388377 -0.108335 0.474328 -15.543193 -10.838151 0.000000 0.000000 0.000000 -20.339605 3.221969 -37.004401 -0.000003 -67.196016 0.000017 0.000000 0.000000 0.000000 3.557025 -2.388377 -0.108335 0.058796 14.667367 14.999012 0.000000 0.000000 0.000000 -11.779101 -6.388069 61.227257 -0.000032 39.443420 0.000028 0.000000 0.000000 0.000000 
